<?xml version="1.0" encoding="UTF-8"?>
<svg id="Layer_1" data-name="Layer 1" xmlns="http://www.w3.org/2000/svg" viewBox="0 0 1000 570.49">
  <defs>
    <style>
      .cls-1 {
        fill: #4366b0;
      }

      .cls-1, .cls-2, .cls-3 {
        stroke-width: 0px;
      }

      .cls-2 {
        fill: #15a34a;
      }

      .cls-4 {
        stroke: #101827;
        stroke-linecap: round;
        stroke-linejoin: round;
        stroke-width: 5px;
      }

      .cls-4, .cls-3 {
        fill: #101827;
      }
    </style>
  </defs>
  <g>
    <path class="cls-2" d="M353.07,560.49c-9.23,0-16.57-3.23-20.68-9.09-4.6-6.57-5.06-16.32-1.26-26.75l102.57-281.79c8.42-23.14,34.89-42.69,57.8-42.69h473.99c9.23,0,16.57,3.23,20.68,9.09,4.6,6.57,5.06,16.32,1.26,26.75l-102.57,281.8c-8.42,23.14-34.89,42.69-57.8,42.69h-473.99Z"/>
    <path class="cls-3" d="M965.49,210.16c3.4,0,9.54.63,12.49,4.83,2.66,3.8,2.68,10.38.06,17.6l-102.57,281.8c-7,19.23-29.62,36.11-48.4,36.11h-473.99c-3.4,0-9.54-.63-12.49-4.83-2.66-3.8-2.68-10.38-.06-17.6l102.57-281.8c7-19.23,29.62-36.11,48.4-36.11h473.99M965.49,190.16h-473.99c-27.21,0-57.3,22.06-67.2,49.27l-102.57,281.8c-9.9,27.21,4.13,49.27,31.34,49.27h473.99c27.21,0,57.3-22.06,67.2-49.27l102.57-281.8c9.9-27.21-4.13-49.27-31.34-49.27h0Z"/>
  </g>
  <g>
    <path class="cls-1" d="M34.51,370.33c-9.23,0-16.57-3.23-20.68-9.09-4.6-6.57-5.06-16.32-1.26-26.75L115.14,52.69c8.42-23.14,34.89-42.69,57.8-42.69h473.99c9.23,0,16.57,3.23,20.68,9.09,4.6,6.57,5.06,16.32,1.26,26.75l-102.56,281.8c-8.42,23.14-34.89,42.69-57.8,42.69H34.51Z"/>
    <path class="cls-3" d="M646.93,20c3.4,0,9.54.63,12.49,4.83,2.66,3.8,2.68,10.38.06,17.6l-102.57,281.8c-7,19.23-29.62,36.11-48.4,36.11H34.51c-3.4,0-9.54-.63-12.49-4.83-2.66-3.8-2.68-10.38-.06-17.6L124.54,56.11c7-19.23,29.62-36.11,48.4-36.11h473.99M646.93,0H172.94c-27.21,0-57.3,22.06-67.2,49.27L3.18,331.06c-9.9,27.21,4.13,49.27,31.34,49.27h473.99c27.21,0,57.3-22.06,67.2-49.27l102.57-281.8c9.9-27.21-4.13-49.27-31.34-49.27h0Z"/>
  </g>
  <path class="cls-4" d="M285.34,248.15l2.96-10.33c5.42-21.45,21.1-44.88,49.63-68.71,25.54-21.05,41.1-36.54,47.61-54.41,7.37-20.26-.42-33.76-25.3-34.16-14.3,0-31.92,4.77-44.6,12.31l-.43-25.02c16.58-9.53,41.53-15.89,62.58-15.89,45.68,0,56.07,28.2,45.08,58.39-9.83,27.01-32.01,46.47-59.31,69.11-24.99,20.65-37.71,38.13-43.89,58.39l-3.36,10.33h-30.98ZM256.36,303.76c5.35-14.7,19.04-25.02,32.94-25.02s19.68,10.33,14.33,25.02c-5.06,13.9-18.1,24.63-32.79,24.63-13.9,0-19.53-10.72-14.47-24.63Z"/>
  <path class="cls-4" d="M603.9,438.32l2.96-10.33c5.42-21.45,21.1-44.88,49.63-68.71,25.54-21.05,41.1-36.54,47.61-54.41,7.37-20.26-.42-33.76-25.3-34.16-14.3,0-31.92,4.77-44.6,12.31l-.43-25.02c16.58-9.53,41.53-15.89,62.58-15.89,45.68,0,56.07,28.2,45.08,58.39-9.83,27.01-32.01,46.47-59.31,69.11-24.99,20.65-37.71,38.13-43.89,58.39l-3.36,10.33h-30.98ZM574.92,493.92c5.35-14.7,19.04-25.02,32.94-25.02s19.68,10.33,14.33,25.02c-5.06,13.9-18.1,24.63-32.79,24.63-13.9,0-19.53-10.72-14.47-24.63Z"/>
</svg>